# xmcd
#
# Track frame offsets: 
#        150
#        15653
#        32911
#        49043
#        63375
#        79942
#        96106
#        111553
#        131653
#        147239
#        162209
#        179498
#        195008
#        213189
#        229855
#        249934
#        266342
#        284878
#        298965
#        314924
#
# Disc length: 4473 seconds
#
# Revision: 0
# Processed by: cddbd v1.5.2PL0 Copyright (c) Steve Scherf et al.
# Submitted via: ExactAudioCopy v0.99pb4
#
DISCID=31117714
DTITLE=Various Artist - HP201132
DYEAR=2011
DGENRE=Top 40
TTITLE0=Matt Nathanson - Faster
TTITLE1=The Freshmen - Hello There [Super Clean]
TTITLE2=Patrick Stump feat Lupe Fiasco - This City
TTITLE3=Selena Gomez and The Scene - Love You Like A Love Song
TTITLE4=Drake - Headlines
TTITLE5=Nicki Minaj feat Rihanna - Fly
TTITLE6=Lil' Playy feat Matthew Koma - Birthday Dress
TTITLE7=Chris Brown feat Ludacris - Wet The Bed [Amended]
TTITLE8=Casey James - Let's Don't Call It A Night
TTITLE9=Miranda Lambert - Baggage Claim
TTITLE10=Steel Magnolia - Bulletproof
TTITLE11=Sixx:A.M. - This Is Gonna Hurt [Radio Edit]
TTITLE12=Jane's Addiction - Irresistible Force
TTITLE13=Eve To Adam - Run Your Mouth
TTITLE14=Incubus - Promises, Promises
TTITLE15=Cold - Wicked World
TTITLE16=Swedish House Mafia - Save The World [Smash Mode Radio Edit]
TTITLE17=Wynter Gordon - Til Death [Original Mix]
TTITLE18=Heather Williams - Beautiful Thing [Album Version]
TTITLE19=Building 429 - Made For You [Album Version]
EXTD=
EXTT0=
EXTT1=
EXTT2=
EXTT3=
EXTT4=
EXTT5=
EXTT6=
EXTT7=
EXTT8=
EXTT9=
EXTT10=
EXTT11=
EXTT12=
EXTT13=
EXTT14=
EXTT15=
EXTT16=
EXTT17=
EXTT18=
EXTT19=
PLAYORDER=
